<?xml version="1.0" encoding="UTF-8" standalone="no"?>
<!DOCTYPE svg PUBLIC "-//W3C//DTD SVG 1.1//EN"
 "http://www.w3.org/Graphics/SVG/1.1/DTD/svg11.dtd">
<!-- Generated by graphviz version 2.47.2 (20210527.0053)
 -->
<!-- Title: G Pages: 1 -->
<svg width="134pt" height="237pt"
 viewBox="0.00 0.00 134.00 237.00" xmlns="http://www.w3.org/2000/svg" xmlns:xlink="http://www.w3.org/1999/xlink">
<g id="graph0" class="graph" transform="scale(1 1) rotate(0) translate(4 233)">
<title>G</title>
<polygon fill="white" stroke="transparent" points="-4,4 -4,-233 130,-233 130,4 -4,4"/>
<!-- 0 -->
<g id="node1" class="node">
<title>0</title>
<polygon fill="none" stroke="black" points="36,-144.5 36,-228.5 90,-228.5 90,-144.5 36,-144.5"/>
<text text-anchor="start" x="59.5" y="-214.3" font-family="Times,serif" font-weight="bold" font-size="14.00">1</text>
<polyline fill="none" stroke="black" points="36,-205.5 90,-205.5 "/>
<text text-anchor="start" x="59.5" y="-190.3" font-family="Times,serif" font-size="14.00">2</text>
<text text-anchor="start" x="52.5" y="-175.3" font-family="Times,serif" font-size="14.00">2_2</text>
<polyline fill="none" stroke="black" points="36,-167.5 90,-167.5 "/>
<text text-anchor="start" x="59.5" y="-152.3" font-family="Times,serif" font-size="14.00">3</text>
</g>
<!-- 1_1 -->
<g id="node2" class="node">
<title>1_1</title>
<ellipse fill="none" stroke="black" cx="27" cy="-90" rx="27" ry="18"/>
<text text-anchor="middle" x="27" y="-86.3" font-family="Times,serif" font-size="14.00">1_1</text>
</g>
<!-- 0&#45;&gt;1_1 -->
<g id="edge1" class="edge">
<title>0&#45;&gt;1_1</title>
<path fill="none" stroke="black" d="M47.31,-144.33C43.81,-135.13 40.19,-125.63 36.99,-117.23"/>
<polygon fill="black" stroke="black" points="40.17,-115.74 33.34,-107.64 33.63,-118.23 40.17,-115.74"/>
</g>
<!-- 1_2 -->
<g id="node3" class="node">
<title>1_2</title>
<ellipse fill="none" stroke="black" cx="99" cy="-90" rx="27" ry="18"/>
<text text-anchor="middle" x="99" y="-86.3" font-family="Times,serif" font-size="14.00">1_2</text>
</g>
<!-- 0&#45;&gt;1_2 -->
<g id="edge2" class="edge">
<title>0&#45;&gt;1_2</title>
<path fill="none" stroke="black" d="M78.69,-144.33C82.19,-135.13 85.81,-125.63 89.01,-117.23"/>
<polygon fill="black" stroke="black" points="92.37,-118.23 92.66,-107.64 85.83,-115.74 92.37,-118.23"/>
</g>
<!-- 2_1 -->
<g id="node4" class="node">
<title>2_1</title>
<ellipse fill="none" stroke="black" cx="27" cy="-18" rx="27" ry="18"/>
<text text-anchor="middle" x="27" y="-14.3" font-family="Times,serif" font-size="14.00">2_1</text>
</g>
<!-- 1_1&#45;&gt;2_1 -->
<g id="edge3" class="edge">
<title>1_1&#45;&gt;2_1</title>
<path fill="none" stroke="black" d="M27,-71.7C27,-63.98 27,-54.71 27,-46.11"/>
<polygon fill="black" stroke="black" points="30.5,-46.1 27,-36.1 23.5,-46.1 30.5,-46.1"/>
</g>
</g>
</svg>
